<svg xmlns="http://www.w3.org/2000/svg" width="157" height="123" viewBox="0 0 157 123">
  <path fill="#C01722" d="M130.647227,0.25 L26.3525201,0.25 L0.673140842,42.9102867 L55.488,42.91 L55.488,82.418 L22.4276111,48.9489312 L0.241651949,48.9489312 L71.1251351,122.865691 L71.1251351,27.3002238 L27.97,27.3 L35.41,15.083 L121.59,15.083 L129.031,27.3 L85.8751154,27.3002238 L85.8751154,122.865691 L156.758344,48.9489312 L134.633198,48.9489312 L101.513,83.378 L101.513,42.91 L156.326866,42.9102867 L130.647227,0.25 Z M129.8,1.75 L153.674,41.41 L100.012581,41.4102867 L100.012581,87.1011785 L135.272,50.448 L153.242,50.448 L87.376,119.134 L87.376,28.8 L131.699992,28.8002238 L122.432877,13.5834727 L34.5666152,13.5834727 L25.2997781,28.8002238 L69.626,28.8 L69.626,119.134 L3.759,50.448 L21.801,50.448 L56.9874192,86.071971 L56.9874192,41.4102867 L3.327,41.41 L27.201,1.75 L129.8,1.75 Z"/>
</svg>
