<?xml version="1.0" standalone="no"?>
<!DOCTYPE svg PUBLIC "-//W3C//DTD SVG 20010904//EN"
 "http://www.w3.org/TR/2001/REC-SVG-20010904/DTD/svg10.dtd">
<svg version="1.0" xmlns="http://www.w3.org/2000/svg"
 width="1024.000000pt" height="1024.000000pt" viewBox="0 0 1024.000000 1024.000000"
 preserveAspectRatio="xMidYMid meet">
<metadata>
Created by potrace 1.14, written by Peter Selinger 2001-2017
</metadata>
<g transform="translate(0.000000,1024.000000) scale(0.100000,-0.100000)"
fill="#000000" stroke="none">
<path d="M2347 8313 c-13 -21 -91 -150 -174 -288 -251 -417 -902 -1497 -1031
-1712 -67 -110 -122 -204 -122 -207 0 -3 648 -6 1440 -6 l1440 0 0 -1037 0
-1038 -378 380 c-208 209 -598 604 -868 878 l-491 497 -583 0 -582 0 40 -47
c22 -27 181 -194 353 -373 172 -179 621 -647 998 -1040 377 -393 1039 -1084
1471 -1535 433 -451 801 -837 819 -857 18 -21 37 -38 42 -38 5 0 9 1039 9
2515 l0 2515 -1112 0 c-612 0 -1123 3 -1135 6 -20 5 -12 21 104 212 69 114
138 227 153 252 15 25 45 74 67 110 l40 65 2273 0 2273 0 112 -185 c62 -102
149 -244 192 -317 l80 -131 -30 -6 c-16 -3 -526 -6 -1133 -6 l-1104 0 0 -2515
c0 -1476 4 -2515 9 -2515 5 0 24 17 42 37 18 21 388 409 823 863 435 453 953
993 1150 1200 402 418 534 557 586 610 50 52 385 401 749 780 172 179 326 342
343 363 l30 37 -579 0 -578 0 -141 -142 c-77 -79 -250 -258 -384 -398 -134
-140 -307 -320 -385 -400 -77 -80 -295 -306 -484 -502 -189 -197 -345 -358
-347 -358 -2 0 -4 477 -4 1060 l0 1060 1441 0 c1149 0 1440 3 1436 13 -2 6
-143 242 -312 522 -169 281 -389 645 -488 810 -100 165 -262 435 -362 600
l-180 300 -2753 3 -2752 2 -23 -37z m5796 -570 c174 -291 456 -760 626 -1043
l310 -515 -1408 -3 -1408 -2 -7 -53 c-7 -65 -8 -2320 0 -2340 6 -17 44 21 764
773 261 272 531 554 600 625 70 72 210 217 311 322 l184 193 468 0 468 0 -19
-24 c-10 -13 -219 -233 -463 -488 -245 -255 -656 -683 -914 -953 -259 -269
-827 -862 -1263 -1317 -436 -456 -795 -828 -798 -828 -2 0 -4 1069 -4 2375 l0
2375 1153 0 c633 0 1158 4 1165 9 10 6 -3 33 -51 112 -69 112 -141 231 -312
512 l-109 177 -2315 0 -2316 0 -109 -177 c-60 -98 -140 -230 -179 -293 -39
-63 -99 -162 -134 -219 -35 -57 -61 -106 -58 -110 4 -3 528 -7 1166 -9 l1159
-2 0 -2375 c0 -1306 -2 -2375 -4 -2375 -3 0 -256 262 -563 583 -849 886 -1513
1578 -1652 1722 -69 72 -216 225 -326 340 -110 115 -252 264 -315 330 -466
485 -560 584 -584 613 l-19 22 471 0 470 0 923 -935 c507 -514 926 -932 930
-929 5 2 6 435 3 962 -3 526 -5 1053 -5 1170 l1 212 -1410 0 c-775 0 -1410 4
-1410 8 0 4 4 12 9 18 8 8 308 505 1084 1797 l161 267 2706 0 2705 0 318 -527z"/>
</g>
</svg>
